<svg xmlns="http://www.w3.org/2000/svg" xmlns:xlink="http://www.w3.org/1999/xlink" viewBox="0 0 578 578"><defs><style>.cls-1{fill:url(#radial-gradient);}.cls-2{fill:#4d4d4d;}.cls-3{fill:#23f994;}.cls-4{fill:url(#linear-gradient);}</style><radialGradient id="radial-gradient" cx="289" cy="289" r="279.5" gradientTransform="matrix(-1, 0, 0, 1, 578, 0)" gradientUnits="userSpaceOnUse"><stop offset="0.9" stop-color="#1a1a1a"/><stop offset="0.91" stop-color="#1b2922"/><stop offset="0.93" stop-color="#1c5138"/><stop offset="0.96" stop-color="#1f915b"/><stop offset="0.99" stop-color="#22e88b"/><stop offset="1" stop-color="#23f994"/></radialGradient><linearGradient id="linear-gradient" x1="293.43" y1="20" x2="293.43" y2="288" gradientTransform="matrix(-1, 0, 0, 1, 578, 0)" gradientUnits="userSpaceOnUse"><stop offset="0" stop-color="#fff" stop-opacity="0.9"/><stop offset="0.08" stop-color="#fff" stop-opacity="0.8"/><stop offset="0.25" stop-color="#fff" stop-opacity="0.59"/><stop offset="0.42" stop-color="#fff" stop-opacity="0.41"/><stop offset="0.59" stop-color="#fff" stop-opacity="0.28"/><stop offset="0.74" stop-color="#fff" stop-opacity="0.18"/><stop offset="0.89" stop-color="#fff" stop-opacity="0.12"/><stop offset="1" stop-color="#fff" stop-opacity="0.1"/></linearGradient></defs><title>left-arrow</title><g id="Layer_2" data-name="Layer 2"><g id="Layer_2-2" data-name="Layer 2"><path class="cls-1" d="M289,568.5A279.5,279.5,0,0,1,91.36,91.36,279.5,279.5,0,0,1,486.64,486.64,277.67,277.67,0,0,1,289,568.5Z"/><path class="cls-2" d="M289,19A270.08,270.08,0,0,1,394.09,537.79,270.07,270.07,0,0,1,183.91,40.21,268.29,268.29,0,0,1,289,19m0-19C129.39,0,0,129.39,0,289S129.39,578,289,578,578,448.61,578,289,448.61,0,289,0Z"/><rect class="cls-3" x="208" y="251" width="266" height="75"/><polygon class="cls-3" points="105 289 207.34 289 366 154 263 154 105 289"/><polygon class="cls-3" points="105 289 207.34 289 366 424 263 424 105 289"/></g><g id="Layer_1-2" data-name="Layer 1"><path class="cls-4" d="M53.65,158.64a263.59,263.59,0,0,0,461.84-14.82A269.07,269.07,0,0,0,53.65,158.64Z"/></g></g></svg>