<svg xmlns="http://www.w3.org/2000/svg" viewBox="0 0 323.01 69.05"><defs><style>.cls-1{fill:#40ffc8;}.cls-2{fill:#fff;}</style></defs><title>logo</title><g id="Layer_2" data-name="Layer 2"><g id="outlines"><path class="cls-1" d="M117.31,22.61l8.93,20.16,8.93-20.16h5.76L126.24,54.44,111.55,22.61Z"/><path class="cls-1" d="M165,22.61h5.18V52.49H165V48.32a12.61,12.61,0,0,1-10.23,5c-7.56,0-14.54-5.33-14.54-15.84,0-10.3,6.91-15.62,14.54-15.62a12.36,12.36,0,0,1,10.23,5ZM145.54,37.52c0,6.41,3.6,11.23,9.79,11.23s9.94-5.26,9.94-11.16c0-7.7-5.33-11.09-9.94-11.09C150.22,26.5,145.54,30.24,145.54,37.52Z"/><path class="cls-1" d="M181,47.74H201.7v4.75H170.59l21.6-25.13H174.77V22.61h27.79Z"/><path class="cls-1" d="M225.89,22.61h5.18V69.05h-5.18V48.32a12.6,12.6,0,0,1-10.23,5c-7.56,0-14.54-5.33-14.54-15.84,0-10.3,6.91-15.62,14.54-15.62a12.36,12.36,0,0,1,10.23,5ZM206.45,37.52c0,6.41,3.6,11.23,9.79,11.23s9.94-5.26,9.94-11.16c0-7.7-5.33-11.09-9.94-11.09C211.13,26.5,206.45,30.24,206.45,37.52Z"/><path class="cls-1" d="M241.73,40c0,2.09,0,4.54,1.44,6.41a7.15,7.15,0,0,0,10.51,0c1.44-1.87,1.44-4.32,1.44-6.41V22.61h5.18v18c0,3.67-.36,6.41-2.74,9a13,13,0,0,1-18.29,0c-2.38-2.59-2.74-5.33-2.74-9v-18h5.18Z"/><path class="cls-1" d="M292.27,44.86a17.89,17.89,0,0,1-3.67,4.83,14.51,14.51,0,0,1-9.94,3.67c-7.2,0-14.76-4.54-14.76-15.62,0-8.93,5.47-15.84,14.47-15.84a13.37,13.37,0,0,1,11.3,5.47c1.87,2.66,3,7.27,2.81,11.23H269.23c.07,6.19,4.32,10.15,9.5,10.15a9.08,9.08,0,0,0,6.12-2.16,11.9,11.9,0,0,0,3.1-4.1Zm-5.11-10.58c-.87-4.68-4.39-7.78-8.79-7.78a9.08,9.08,0,0,0-8.79,7.78Z"/><path class="cls-1" d="M301.41,47.74h20.74v4.75H291l21.6-25.13H295.22V22.61H323Z"/><path class="cls-2" d="M28.37,44.86a17.89,17.89,0,0,1-3.67,4.83,14.51,14.51,0,0,1-9.94,3.67C7.56,53.36,0,48.82,0,37.73,0,28.8,5.47,21.89,14.47,21.89a13.37,13.37,0,0,1,11.31,5.47c1.87,2.66,3,7.27,2.81,11.23H5.33c.07,6.19,4.32,10.15,9.5,10.15A9.08,9.08,0,0,0,21,46.59a11.91,11.91,0,0,0,3.1-4.1ZM23.26,34.27c-.86-4.68-4.39-7.78-8.78-7.78a9.08,9.08,0,0,0-8.78,7.78Z"/><path class="cls-2" d="M32.18,22.61h5.18v3.24a8.3,8.3,0,0,1,6.77-4,11,11,0,0,1,4.61,1.22L46.3,27.79a5.34,5.34,0,0,0-3-1,5,5,0,0,0-4.18,1.87c-.86,1.15-1.73,3.17-1.73,8.06V52.49H32.18Z"/><path class="cls-2" d="M51.77,7.63a3.67,3.67,0,1,1-3.67,3.67A3.69,3.69,0,0,1,51.77,7.63Zm2.59,15V52.49H49.17V22.61Z"/><path class="cls-2" d="M83.23,31a12.05,12.05,0,0,0-9.36-4.46c-5.54,0-10.58,3.89-10.58,11.16S68.47,48.75,73.8,48.75a12.74,12.74,0,0,0,9.65-4.68v6.19a16,16,0,0,1-9.5,3.1c-9.29,0-16-6.62-16-15.62s6.77-15.84,16-15.84a15.82,15.82,0,0,1,9.29,2.88Z"/><path class="cls-2" d="M92.23,0V33.7l10.94-11.09h6.77L97.13,35.43l15.12,17.07h-6.77l-12-13.61-1.3,1.3V52.49H87V0Z"/></g></g></svg>